HIERARCHY
ROOT Bip001_Pelvis
{
  OFFSET 7.937 94.8971 -8.5489
  CHANNELS 6 Xposition Yposition Zposition Zrotation Xrotation Yrotation
  JOINT Bip001_Spine
  {
    OFFSET 1.44608e-005 10.4157 -0.0118244
    CHANNELS 3 Zrotation Xrotation Yrotation
    JOINT Bip001_L_Thigh
    {
      OFFSET 11.2582 -10.4157 0.0118432
      CHANNELS 3 Zrotation Xrotation Yrotation
      JOINT Bip001_L_Calf
      {
        OFFSET -0.720717 -44.8687 0.366937
        CHANNELS 3 Zrotation Xrotation Yrotation
        JOINT Bip001_L_Foot
        {
          OFFSET -0.664439 -41.3745 -3.62995
          CHANNELS 3 Zrotation Xrotation Yrotation
          JOINT Bip001_L_Toe0
          {
            OFFSET 0.0541047 -10.4146 13.4033
            CHANNELS 3 Zrotation Xrotation Yrotation
            End Site
            {
              OFFSET -1.04503e-005 0 7.70137
            }
          }
        }
      }
    }
    JOINT Bip001_R_Thigh
    {
      OFFSET -11.2582 -10.4156 0.0118122
      CHANNELS 3 Zrotation Xrotation Yrotation
      JOINT Bip001_R_Calf
      {
        OFFSET 0.72059 -44.8687 0.36676
        CHANNELS 3 Zrotation Xrotation Yrotation
        JOINT Bip001_R_Foot
        {
          OFFSET 0.664321 -41.3745 -3.62979
          CHANNELS 3 Zrotation Xrotation Yrotation
          JOINT Bip001_R_Toe0
          {
            OFFSET -0.05417 -10.4146 13.4033
            CHANNELS 3 Zrotation Xrotation Yrotation
            End Site
            {
              OFFSET -1.04873e-005 0 7.70137
            }
          }
        }
      }
    }
    JOINT Bip001_Spine1
    {
      OFFSET 1.90638e-005 14.8539 1.10727
      CHANNELS 3 Zrotation Xrotation Yrotation
      JOINT Bip001_Spine2
      {
        OFFSET 2.28934e-005 14.7848 -1.7233
        CHANNELS 3 Zrotation Xrotation Yrotation
        JOINT Bip001_Neck
        {
          OFFSET 2.24514e-005 15.6905 -0.498826
          CHANNELS 3 Zrotation Xrotation Yrotation
          JOINT Bip001_L_Clavicle
          {
            OFFSET 6.17691 -0.000591152 0.00852867
            CHANNELS 3 Zrotation Xrotation Yrotation
            JOINT Bip001_L_UpperArm
            {
              OFFSET 11.773 -0.0611878 0.00197697
              CHANNELS 3 Zrotation Xrotation Yrotation
              JOINT Bip001_L_Forearm
              {
                OFFSET 26.4515 0.0817568 -2.19579
                CHANNELS 3 Zrotation Xrotation Yrotation
                JOINT Bip001_L_Hand
                {
                  OFFSET 32.8677 0.156744 1.67112
                  CHANNELS 3 Zrotation Xrotation Yrotation
                  JOINT Bip001_L_Finger0
                  {
                    OFFSET 6.16268 -2.25226 6.01674
                    CHANNELS 3 Zrotation Xrotation Yrotation
                    End Site
                    {
                      OFFSET 4.30499 -1.46662 0.618148
                    }
                  }
                  JOINT Bip001_L_Finger1
                  {
                    OFFSET 11.2957 -0.718374 -0.201963
                    CHANNELS 3 Zrotation Xrotation Yrotation
                    End Site
                    {
                      OFFSET 6.31952 -0.405163 -0.0802303
                    }
                  }
                }
              }
            }
          }
          JOINT Bip001_R_Clavicle
          {
            OFFSET -6.17691 -0.000574027 0.00851165
            CHANNELS 3 Zrotation Xrotation Yrotation
            JOINT Bip001_R_UpperArm
            {
              OFFSET -11.773 -0.0611516 0.00194365
              CHANNELS 3 Zrotation Xrotation Yrotation
              JOINT Bip001_R_Forearm
              {
                OFFSET -26.4514 0.0822334 -2.19736
                CHANNELS 3 Zrotation Xrotation Yrotation
                JOINT Bip001_R_Hand
                {
                  OFFSET -32.8677 0.156817 1.67144
                  CHANNELS 3 Zrotation Xrotation Yrotation
                  JOINT Bip001_R_Finger0
                  {
                    OFFSET -6.1627 -2.25224 6.0167
                    CHANNELS 3 Zrotation Xrotation Yrotation
                    End Site
                    {
                      OFFSET -4.30499 -1.46662 0.618134
                    }
                  }
                  JOINT Bip001_R_Finger1
                  {
                    OFFSET -11.2958 -0.718344 -0.201994
                    CHANNELS 3 Zrotation Xrotation Yrotation
                    End Site
                    {
                      OFFSET -6.31952 -0.405146 -0.0802475
                    }
                  }
                }
              }
            }
          }
          JOINT Bip001_Head
          {
            OFFSET 1.11782e-005 11.4912 2.09908
            CHANNELS 3 Zrotation Xrotation Yrotation
            End Site
            {
              OFFSET 2.95144e-005 21.2823 -2.83069e-005
            }
          }
        }
      }
    }
  }
}
MOTION
Frames:	10
Frame Time:	0.04
8.22358 95.4909 -8.56138 -0.227078 -0.954356 2.94552 0.114714 1.99576 0.249097 5.13707 -9.77524 6.8915 -1.21041 15.4616 -1.31775 -2.51341 -5.99244 0.416494 0.662124 -9.86091 0.259879 -8.32199 -6.3415 -1.0353 0.565 14.0049 0.603192 1.85861 -7.77747 -10.0731 -1.10562 -11.5134 0.9563 0.0235074 3.99157 0.487346 0.0235076 3.99158 0.487344 2.10467 10.7325 -4.30441 -32.6824 -6.13531 -12.1837 -48.5671 42.4784 4.90189 12.4852 0.909648 -24.2947 -2.95217 -0.317676 -1.39942 0 0 -0 0 0 -0 33.938 -0.858545 19.0063 59.504 46.5414 -31.2332 -0.383944 -26.8257 25.4454 16.9515 -1.07131 -14.0137 3.18055e-015 3.18055e-015 3.18055e-015 3.18055e-015 3.18056e-015 3.18055e-015 -1.55353 11.8286 -2.95522 
8.11687 95.4936 -8.59179 -0.246206 -0.941608 2.55156 0.127322 2.02876 0.132102 5.25482 -9.70486 7.7702 -1.0756 15.3926 -1.53435 -2.62887 -5.98551 0.210401 0.667499 -9.8447 0.29174 -8.25473 -6.57395 -0.87302 0.513443 14.1038 0.723245 1.90189 -7.77492 -9.86629 -1.19491 -11.5093 0.981541 0.0720777 4.05759 0.251241 0.0720774 4.05758 0.251242 2.05153 11.0176 -3.98376 -32.6623 -6.32778 -12.268 -48.4904 42.5021 4.89932 12.361 1.78185 -23.2855 -3.44723 -0.305398 -1.14431 -3.18055e-015 0 7.95139e-016 -0 -3.18056e-015 -0 34.2547 -1.40626 18.441 60.8049 45.3658 -32.623 -0.723566 -27.0675 26.2604 15.7592 -0.816481 -13.8965 1.59028e-015 -3.18055e-015 -0 1.59028e-015 -3.18056e-015 -3.18055e-015 -1.48862 11.9766 -2.67461 
8.00727 95.4991 -8.63751 -0.286436 -0.907283 2.1675 0.15253 2.03301 0.0489538 5.41604 -9.65289 8.94095 -0.891059 15.3599 -2.00898 -2.73409 -5.97112 -0.0569912 0.669501 -9.83951 0.303605 -8.17546 -6.76893 -0.823086 0.482367 14.1355 0.889767 1.93892 -7.73956 -9.65959 -1.28197 -11.4923 1.02234 0.114053 4.06407 0.0828197 0.114056 4.06408 0.0827874 2.03601 11.1205 -3.93923 -32.6083 -6.45673 -12.1966 -48.708 42.5647 5.16567 12.2649 2.23067 -22.6052 -3.78437 -0.381781 -0.340451 -1.59028e-015 -9.54166e-015 7.95139e-016 1.76556e-031 -1.27222e-014 7.95139e-016 34.908 -1.49019 18.1595 59.2587 42.4859 -31.5715 -0.742253 -26.6376 26.8775 15.4285 -0.691553 -14.1042 1.59028e-015 -3.18055e-015 -0 1.59028e-015 -3.18056e-015 -3.18055e-015 -1.55655 12.139 -2.61108 
7.91456 95.5049 -8.64029 -0.287276 -1.0089 1.79836 0.16318 2.04815 0.00531165 5.51676 -9.4283 9.68312 -0.782019 15.2614 -2.25226 -2.83103 -5.96311 -0.206184 0.674714 -9.83486 0.334266 -8.13206 -6.80706 -0.781783 0.465716 14.1832 1.05591 1.94792 -7.73831 -9.47592 -1.3505 -11.4803 1.05618 0.127844 4.08282 -0.00559676 0.127844 4.08283 -0.00559628 2.10607 11.3292 -3.88781 -32.4362 -6.49349 -12.7255 -49.5844 41.8371 5.91814 12.4008 2.68552 -22.2029 -3.99658 -0.394736 -0.364486 -7.95139e-016 3.18055e-015 7.95139e-016 7.95139e-016 6.36111e-015 -0 35.2089 -1.81363 17.7833 55.4729 38.6164 -28.1561 0.619613 -24.7952 27.2148 15.3835 -0.636102 -13.522 -3.53112e-031 -3.18055e-015 -6.36111e-015 -3.53113e-031 -3.18056e-015 -6.36111e-015 -1.62511 11.9205 -2.51364 
7.83052 95.5077 -8.63474 -0.333009 -1.10422 1.46466 0.185049 2.03346 -0.0337791 5.61525 -9.24165 9.6955 -0.809872 15.2499 -2.07795 -2.90541 -6.01568 -0.0758912 0.681103 -9.82427 0.372065 -8.03168 -6.79545 -0.587859 0.451706 14.1952 1.24454 1.87953 -7.70765 -9.47457 -1.3568 -11.4789 1.05394 0.171108 4.06682 -0.0847368 0.171108 4.06681 -0.0847367 2.09427 11.2662 -3.82717 -32.2352 -6.3992 -12.8246 -49.428 41.8485 5.43559 11.7552 2.52121 -21.6533 -3.90508 -0.314646 -0.732957 7.95139e-016 -3.18055e-015 -7.95139e-016 7.95139e-016 -3.18056e-015 -7.95139e-016 35.3793 -1.90392 17.3681 53.0263 35.4721 -25.3887 0.508127 -23.8037 27.832 14.892 -0.419765 -13.8984 -1.59028e-015 -6.36111e-015 -0 -1.59028e-015 -6.36111e-015 3.18055e-015 -1.70161 12.0678 -2.43149 
7.78867 95.5143 -8.62582 -0.356061 -1.17804 1.16098 0.192819 2.00748 -0.0918118 5.62241 -9.07748 7.7989 -1.28553 15.1715 -0.559136 -2.91007 -6.07054 0.670239 0.687546 -9.80898 0.410458 -7.98169 -6.77765 -0.312857 0.490543 14.1876 1.34147 1.7928 -7.65755 -9.49676 -1.33823 -11.4791 1.05392 0.196458 4.01474 -0.201275 0.196458 4.01474 -0.201276 2.19404 11.3118 -3.71747 -32.2173 -6.40787 -12.9123 -49.3949 41.9442 5.08163 11.5779 2.43317 -21.4691 -3.96401 -0.297688 -1.1228 -1.59028e-015 0 -0 -0 -3.18056e-015 -0 35.2355 -2.06496 17.2363 51.7413 35.4729 -23.3408 1.08071 -25.2138 29.5217 12.2623 0.00138521 -14.293 2.38542e-015 0 -1.59028e-015 1.59028e-015 0 1.59028e-015 -1.85021 11.9526 -2.23883 
7.75576 95.5162 -8.57906 -0.383903 -1.29561 0.880631 0.19921 1.98407 -0.136968 5.70459 -8.8205 8.49351 -1.17076 15.1567 -0.823092 -2.96804 -6.12571 0.514813 0.689434 -9.81017 0.421491 -7.9255 -6.68444 -0.0586108 0.514668 14.1805 1.46939 1.72667 -7.64419 -9.53758 -1.3235 -11.4855 1.05394 0.204862 3.96783 -0.291871 0.204836 3.96782 -0.291746 2.16533 11.1098 -3.58208 -32.1085 -6.18843 -12.8842 -49.278 42.0003 4.69114 11.8273 2.51443 -21.7607 -4.11109 -0.308273 -0.857718 -1.59028e-015 -9.54166e-015 -1.59028e-015 -2.64834e-031 -9.54167e-015 -1.59028e-015 35.1521 -1.96999 17.0526 50.0946 36.2226 -21.2759 0.211043 -24.6687 31.2429 9.86981 0.316417 -14.8325 7.95139e-016 -3.18055e-015 -1.59028e-015 -3.53113e-031 -6.36111e-015 -3.18055e-015 -1.79371 11.98 -2.13549 
7.75364 95.5166 -8.5371 -0.40674 -1.42919 0.570738 0.183513 1.95166 -0.134951 5.78377 -8.56055 8.8682 -1.14252 15.1716 -0.894087 -2.99062 -6.19673 0.489625 0.689715 -9.80605 0.423314 -7.87355 -6.57064 -0.116893 0.469749 14.1792 1.74188 1.66789 -7.60549 -9.43098 -1.27808 -11.4923 1.05395 0.176649 3.90307 -0.286285 0.176649 3.90307 -0.286286 2.32843 10.8657 -3.61777 -32.1834 -5.93007 -12.953 -48.8445 41.8817 4.15351 11.625 1.64165 -22.2816 -3.82912 -0.317802 -0.786869 1.59028e-015 -3.18055e-015 1.59028e-015 4.41391e-032 -3.18056e-015 7.95139e-016 35.0999 -1.76927 16.8709 47.0479 35.4407 -18.6357 -2.17413 -21.1942 33.6143 9.39414 0.386873 -15.2668 7.95139e-016 3.18055e-015 -0 7.95139e-016 3.18056e-015 7.95139e-016 -1.84727 11.9633 -2.0941 
7.75152 95.5139 -8.48513 -0.452927 -1.62067 0.119876 0.158438 1.92296 -0.105604 5.88691 -8.2237 9.20189 -1.13095 15.2066 -1.00845 -3.00407 -6.32107 0.634474 0.702198 -9.79368 0.446732 -7.79252 -6.42484 0.826313 0.678235 14.1449 1.55858 1.55842 -7.57489 -9.7599 -1.27281 -11.4857 1.03641 0.125942 3.84578 -0.22625 0.125942 3.84578 -0.22625 2.3626 10.6426 -3.82278 -32.0548 -5.79166 -12.8682 -48.7228 41.862 3.93649 12.0392 1.4813 -22.8856 -3.65637 -0.290987 -1.04236 -1.59028e-015 3.18055e-015 -7.95139e-016 -1.59028e-015 0 -7.95139e-016 34.8492 -1.58228 16.7747 43.6789 34.4099 -15.107 -4.5823 -18.2791 36.2611 9.31482 0.45977 -14.9909 -9.93923e-017 1.27222e-014 5.96354e-016 3.97569e-016 1.27222e-014 7.95139e-016 -1.95249 11.8172 -2.25529 
7.8001 95.5215 -8.44356 -0.489281 -1.79299 -0.476675 0.118874 1.8892 -0.0792047 5.91349 -7.8621 8.83797 -1.22817 15.1677 -0.266858 -3.04253 -6.42197 0.801309 0.704059 -9.7993 0.449826 -7.77011 -6.31039 0.566486 0.594532 14.0867 1.97325 1.55193 -7.45083 -9.34875 -1.22296 -11.5103 1.07219 0.0489873 3.77835 -0.171729 0.0489873 3.77835 -0.17173 2.26506 10.4846 -3.90615 -31.7644 -5.68365 -12.8148 -47.7639 41.85 2.81511 12.0171 1.4035 -23.2397 -3.71993 -0.330607 -1.79814 -1.59028e-015 3.18055e-015 1.59028e-015 -1.59028e-015 3.18056e-015 7.95139e-016 34.6509 -1.42372 16.8387 39.7463 31.4927 -11.1033 -6.02796 -16.0714 40.8741 9.09548 0.80617 -14.9654 -1.59028e-015 -9.54166e-015 -0 -3.18055e-015 -6.36111e-015 -1.59028e-015 -1.96673 11.4025 -2.38031 
